<svg width="900" height="900" viewBox="0 0 900 900" fill="none" xmlns="http://www.w3.org/2000/svg">
  <defs>
    <linearGradient id="g" x1="0" y1="0" x2="1" y2="1">
      <stop offset="0%" stop-color="#16331f"/>
      <stop offset="100%" stop-color="#88b04b"/>
    </linearGradient>
  </defs>
  <rect width="900" height="900" rx="48" fill="url(#g)"/>
  <circle cx="450" cy="450" r="220" fill="#f4f1e8" stroke="#1f1f1f" stroke-width="14"/>
  <path d="M450 278l66 48-25 78h-82l-25-78 66-48z" fill="#1f1f1f"/>
  <path d="M350 360l-62 45 24 82 67 20 46-60-25-78-50-9z" fill="#2a2a2a"/>
  <path d="M550 360l62 45-24 82-67 20-46-60 25-78 50-9z" fill="#2a2a2a"/>
  <path d="M383 514l67 84 67-84-21-62h-92l-21 62z" fill="#1f1f1f"/>
  <circle cx="450" cy="450" r="260" stroke="#ffffff" stroke-opacity="0.25" stroke-width="2"/>
</svg>