<svg width="900" height="900" viewBox="0 0 900 900" fill="none" xmlns="http://www.w3.org/2000/svg">
  <defs>
    <linearGradient id="b" x1="0" y1="0" x2="1" y2="1">
      <stop offset="0%" stop-color="#121212"/>
      <stop offset="100%" stop-color="#2f6df6"/>
    </linearGradient>
  </defs>
  <rect width="900" height="900" rx="48" fill="#dfe3ea"/>
  <path d="M140 580c120-36 240-88 332-174l136 34 110 120c-72 24-160 44-262 58-118 16-220 10-316-38z" fill="url(#b)"/>
  <path d="M260 455l210-20 54 42-38 50-188 18-38-90z" fill="#ffffff" fill-opacity="0.92"/>
  <path d="M477 477l94-12 52 24-16 47-92 15-38-74z" fill="#0b0b0b"/>
  <path d="M214 635c92 18 181 15 286-4 77-13 145-30 206-50" stroke="#101010" stroke-width="16" stroke-linecap="round" opacity="0.35"/>
  <circle cx="684" cy="286" r="68" fill="#0c0c0c" fill-opacity="0.15"/>
</svg>